<svg width="28" height="28" viewBox="0 0 28 28" fill="none" xmlns="http://www.w3.org/2000/svg">
<circle cx="14" cy="14" r="14" fill="url(#paint0_linear_35_305)"/>
<path d="M16.9378 8.91544C14.7633 6.74102 11.237 6.74102 9.06259 8.91544C6.88817 11.0899 6.88817 14.6162 9.06259 16.7906C10.9888 18.7169 13.9763 18.9343 16.1436 17.4477L18.8546 20.48C19.3154 20.9976 20.1167 21.0189 20.6059 20.5297L20.6768 20.4588C21.1661 19.9695 21.1448 19.1683 20.6272 18.7074L17.5948 15.9965C19.0838 13.8268 18.864 10.8417 16.9378 8.91544ZM15.5858 15.4387C14.1583 16.8662 11.8421 16.8662 10.4145 15.4387C8.98696 14.0111 8.98696 11.6949 10.4145 10.2674C11.8421 8.83981 14.1583 8.83981 15.5858 10.2674C17.0158 11.6973 17.0134 14.0111 15.5858 15.4387Z" fill="#FEFDFE"/>
<defs>
<linearGradient id="paint0_linear_35_305" x1="21.366" y1="8.49999" x2="6.74578" y2="9.19565" gradientUnits="userSpaceOnUse">
<stop stop-color="#7B61FF"/>
<stop offset="1" stop-color="#AA82FF"/>
</linearGradient>
</defs>
</svg>
